<svg width="144" height="154" viewBox="0 0 144 154" fill="none" xmlns="http://www.w3.org/2000/svg">
<mask id="path-1-inside-1_12_96" fill="white">
<path d="M67 0C80.5046 1.61041e-07 93.7717 3.55173 105.47 10.2988C117.168 17.0459 126.887 26.751 133.649 38.4402C140.412 50.1295 143.982 63.3919 144 76.8965C144.018 90.4011 140.484 103.673 133.753 115.38C127.022 127.088 117.33 136.819 105.649 143.598C93.9692 150.376 80.7116 153.963 67.2071 154C53.7025 154.036 40.4259 150.52 28.7094 143.804C16.9929 137.089 7.24872 127.41 0.454521 115.739L20.1396 104.279C24.924 112.498 31.7857 119.314 40.0363 124.043C48.2869 128.772 57.6361 131.248 67.1458 131.222C76.6556 131.197 85.9913 128.67 94.2164 123.897C102.441 119.124 109.266 112.271 114.006 104.027C118.747 95.7827 121.235 86.4369 121.222 76.9271C121.21 67.4173 118.696 58.0782 113.934 49.8467C109.171 41.6153 102.328 34.7811 94.0901 30.0299C85.8523 25.2787 76.5098 22.7776 67 22.7776L67 0Z"/>
</mask>
<path d="M67 0C80.5046 1.61041e-07 93.7717 3.55173 105.47 10.2988C117.168 17.0459 126.887 26.751 133.649 38.4402C140.412 50.1295 143.982 63.3919 144 76.8965C144.018 90.4011 140.484 103.673 133.753 115.38C127.022 127.088 117.33 136.819 105.649 143.598C93.9692 150.376 80.7116 153.963 67.2071 154C53.7025 154.036 40.4259 150.52 28.7094 143.804C16.9929 137.089 7.24872 127.41 0.454521 115.739L20.1396 104.279C24.924 112.498 31.7857 119.314 40.0363 124.043C48.2869 128.772 57.6361 131.248 67.1458 131.222C76.6556 131.197 85.9913 128.67 94.2164 123.897C102.441 119.124 109.266 112.271 114.006 104.027C118.747 95.7827 121.235 86.4369 121.222 76.9271C121.21 67.4173 118.696 58.0782 113.934 49.8467C109.171 41.6153 102.328 34.7811 94.0901 30.0299C85.8523 25.2787 76.5098 22.7776 67 22.7776L67 0Z" stroke="#3C83EC" stroke-width="40" mask="url(#path-1-inside-1_12_96)"/>
</svg>
